#!OML:ASF I:\Actors\actors\Patient Classification 2\Patient 1\Session 1\actor1.ASF
:FULLY-SPECIFIED
:DEGREES
281
root -0.700362 18.7216 5.48218 2.52263 -2.90078 -1.64004
lowerback 5.90316 1.97907 0.524074
upperback 0.310802 2.68591 0.497947
thorax -2.98657 1.33224 -0.00600243
lowerneck -11.4389 -3.57867 -2.02798
upperneck 31.4902 -5.69522 3.07053
head 12.4571 -2.38288 0.729376
rclavicle -1.30918e-014 2.69602e-015
rhumerus -36.723 15.6028 -90.0623
rradius 99.4216
rwrist 31.9165
rhand -22.6783 -51.0487
rfingers 7.12502
rthumb 3.75373 -80.9954
lclavicle -1.30918e-014 2.69602e-015
lhumerus -26.4968 -18.1675 89.5625
lradius 89.9027
lwrist -15.2158
lhand -14.0328 -22.0016
lfingers 7.12502
lthumb 12.0975 7.62866
rfemur 0 0 0
rtibia 0
rfoot 0 0
rtoes 0
lfemur -5.41937 -3.7561 -12.4785
ltibia 21.7804
lfoot -23.2184 16.8165
ltoes -55.0918
282
root -0.696974 18.7179 5.47848 2.32076 -2.79529 -1.61617
lowerback 6.08268 2.07235 0.539248
upperback 0.309773 2.81266 0.497891
thorax -3.08717 1.39451 -0.0323268
lowerneck -11.6026 -3.67757 -2.21844
upperneck 31.3767 -5.85292 3.28917
head 12.4655 -2.44563 0.819667
rclavicle -1.71762e-015 -7.82715e-015
rhumerus -36.4492 14.8457 -90.4321
rradius 96.3761
rwrist 31.7026
rhand -20.6211 -51.1346
rfingers 7.12502
rthumb 5.74018 -81.0369
lclavicle -1.71762e-015 -7.82715e-015
lhumerus -25.5643 -18.4338 89.9738
lradius 86.3095
lwrist -12.288
lhand -9.25114 -16.2445
lfingers 7.12502
lthumb 16.7047 13.0567
rfemur 0 0 0
rtibia 0
rfoot 0 0
rtoes 0
lfemur -5.26411 -3.82766 -12.5265
ltibia 21.8122
lfoot -23.2066 16.7255
ltoes -55.0838
283
root -0.694065 18.7145 5.47346 2.07845 -2.69598 -1.63802
lowerback 6.36058 2.0997 0.608051
upperback 0.366935 2.85547 0.490816
thorax -3.17993 1.41416 -0.0916102
lowerneck -11.9526 -3.69609 -2.10857
upperneck 31.1912 -5.8711 3.21743
head 12.4572 -2.44679 0.763662
rclavicle -8.13775e-015 -3.23025e-016
rhumerus -35.6514 14.9215 -90.7338
rradius 93.2851
rwrist 30.1897
rhand -17.505 -50.837
rfingers 7.12502
rthumb 8.74801 -80.6357
lclavicle -8.13775e-015 -3.23025e-016
lhumerus -24.9463 -18.6601 90.289
lradius 83.4796
lwrist -8.23306
lhand -8.29581 -16.3109
lfingers 7.12502
lthumb 17.6242 12.9103
rfemur 0 0 0
rtibia 0
rfoot 0 0
rtoes 0
lfemur -5.06508 -3.82682 -12.5158
ltibia 21.851
lfoot -23.154 16.6019
ltoes -55.0677
284
root -0.692146 18.7109 5.47251 1.87428 -2.62366 -1.66586
lowerback 6.59513 2.0676 0.660522
upperback 0.511741 2.81717 0.493067
thorax -3.15937 1.39446 -0.121102
lowerneck -12.3485 -3.6487 -1.86051
upperneck 30.648 -5.76676 3.00198
head 12.2981 -2.40155 0.646338
rclavicle -2.91165e-014 -1.17531e-014
rhumerus -34.941 15.4816 -90.9709
rradius 91.8403
rwrist 29.4581
rhand -20.271 -50.0293
rfingers 7.12502
rthumb 6.0782 -79.9221
lclavicle -2.91165e-014 -1.17531e-014
lhumerus -25.2201 -19.0689 90.6783
lradius 82.7879
lwrist -7.81937
lhand -9.52355 -17.4592
lfingers 7.12502
lthumb 16.4424 11.864
rfemur 0 0 0
rtibia 0
rfoot 0 0
rtoes 0
lfemur -4.89167 -3.82508 -12.4961
ltibia 21.905
lfoot -23.1183 16.5322
ltoes -55.0909
285
root -0.688696 18.7084 5.4713 1.74488 -2.54911 -1.68828
lowerback 6.84005 2.02154 0.745294
upperback 0.648064 2.76172 0.453908
thorax -3.14982 1.36555 -0.21009
lowerneck -12.4402 -3.5973 -1.78727
upperneck 29.6599 -5.71835 3.18179
head 11.923 -2.36359 0.7066
rclavicle 6.14899e-014 -5.47124e-015
rhumerus -35.185 15.9596 -91.4027
rradius 92.2639
rwrist 30.1082
rhand -21.6266 -49.9402
rfingers 7.12502
rthumb 4.76933 -79.8665
lclavicle 6.14899e-014 -5.47124e-015
lhumerus -26.2349 -19.4484 91.0178
lradius 83.9687
lwrist -11.3371
lhand -11.1043 -19.2051
lfingers 7.12502
lthumb 14.92 10.2376
rfemur 0 0 0
rtibia 0
rfoot 0 0
rtoes 0
lfemur -4.8043 -3.88023 -12.4872
ltibia 21.9505
lfoot -23.1141 16.5186
ltoes -55.1367
286
root -0.687468 18.7088 5.47276 1.78288 -2.50425 -1.71336
lowerback 7.02817 2.00485 0.799242
upperback 0.690966 2.74268 0.3842
thorax -3.20479 1.35455 -0.316556
lowerneck -12.3126 -3.59151 -1.80977
upperneck 28.4904 -5.76555 3.57582
head 11.4552 -2.36003 0.851528
rclavicle 6.68724e-015 8.94531e-015
rhumerus -36.1042 16.1873 -92.0588
rradius 94.0074
rwrist 30.7639
rhand -23.6833 -49.725
rfingers 7.12502
rthumb 2.78326 -79.6866
lclavicle 6.68724e-015 8.94531e-015
lhumerus -27.4992 -19.7952 91.3637
lradius 86.2548
lwrist -12.4268
lhand -12.3134 -20.0831
lfingers 7.12502
lthumb 13.755 9.44228
rfemur 0 0 0
rtibia 0
rfoot 0 0
rtoes 0
lfemur -4.87386 -3.85434 -12.4468
ltibia 21.9831
lfoot -23.0961 16.4602
ltoes -55.1472
287
root -0.688965 18.7116 5.47893 1.98939 -2.50347 -1.70424
lowerback 7.06301 1.98925 0.741126
upperback 0.626316 2.71616 0.320849
thorax -3.29096 1.34107 -0.349655
lowerneck -12.0802 -3.5863 -1.74132
upperneck 27.3981 -5.77867 3.77904
head 10.9963 -2.3572 0.915406
rclavicle 1.46231e-014 1.49089e-015
rhumerus -36.7978 15.9633 -92.5213
rradius 96.0176
rwrist 31.8616
rhand -24.1721 -49.5615
rfingers 7.12502
rthumb 2.31113 -79.5287
lclavicle 1.46231e-014 1.49089e-015
lhumerus -28.7485 -19.9403 91.7776
lradius 88.6774
lwrist -12.1752
lhand -13.3886 -20.2997
lfingers 7.12502
lthumb 12.7186 9.29295
rfemur 0 0 0
rtibia 0
rfoot 0 0
rtoes 0
lfemur -5.10484 -3.70263 -12.4171
ltibia 22.0264
lfoot -23.0064 16.3613
ltoes -55.1529
288
root -0.6886 18.7159 5.48449 2.258 -2.49186 -1.71468
lowerback 6.95532 1.94598 0.673752
upperback 0.541749 2.6527 0.307439
thorax -3.32119 1.31015 -0.317513
lowerneck -11.8934 -3.57434 -1.75344
upperneck 26.5742 -5.7621 3.93977
head 10.6559 -2.34991 0.979955
rclavicle -2.24875e-014 6.95746e-016
rhumerus -37.1528 15.6979 -92.8997
rradius 97.8684
rwrist 32.3496
rhand -23.7102 -50.4516
rfingers 7.12502
rthumb 2.75727 -80.4135
lclavicle -2.24875e-014 6.95746e-016
lhumerus -29.7542 -19.7655 92.2589
lradius 90.9784
lwrist -11.0877
lhand -14.1297 -20.3317
lfingers 7.12502
lthumb 12.0041 9.30404
rfemur 0 0 0
rtibia 0
rfoot 0 0
rtoes 0
lfemur -5.41655 -3.61263 -12.3828
ltibia 22.0848
lfoot -22.9249 16.29
ltoes -55.103
289
root -0.686339 18.7204 5.48864 2.56259 -2.44167 -1.7521
lowerback 6.72989 1.90727 0.631795
upperback 0.463134 2.59741 0.324385
thorax -3.27944 1.28368 -0.264652
lowerneck -11.8008 -3.58225 -1.86136
upperneck 25.9955 -5.76614 4.11323
head 10.4333 -2.35423 1.0604
rclavicle -2.81529e-014 1.68967e-015
rhumerus -37.3573 15.5141 -93.2207
rradius 99.5313
rwrist 32.4223
rhand -22.9028 -52.1134
rfingers 7.12502
rthumb 3.53693 -82.0638
lclavicle -2.81529e-014 1.68967e-015
lhumerus -30.5036 -19.4337 92.7859
lradius 92.9421
lwrist -10.4734
lhand -14.5139 -20.5031
lfingers 7.12502
lthumb 11.6335 9.15394
rfemur 0 0 0
rtibia 0
rfoot 0 0
rtoes 0
lfemur -5.78549 -3.5678 -12.3271
ltibia 22.1454
lfoot -22.8995 16.2226
ltoes -55.06
290
root -0.684771 18.7237 5.49172 2.81821 -2.37192 -1.76824
lowerback 6.53733 1.88165 0.541247
upperback 0.372442 2.55613 0.331278
thorax -3.26994 1.26462 -0.198017
lowerneck -11.7457 -3.60881 -1.83195
upperneck 25.5315 -5.7806 4.09227
head 10.2516 -2.36978 1.04662
rclavicle 1.31322e-014 -2.38542e-015
rhumerus -37.5245 15.3256 -93.4281
rradius 100.944
rwrist 32.9325
rhand -23.3015 -52.8137
rfingers 7.12502
rthumb 3.15189 -82.7701
lclavicle 1.31322e-014 -2.38542e-015
lhumerus -31.1437 -19.1 93.3194
lradius 94.4548
lwrist -10.5507
lhand -15.0428 -21.2511
lfingers 7.12502
lthumb 11.1235 8.43409
rfemur 0 0 0
rtibia 0
rfoot 0 0
rtoes 0
lfemur -6.11552 -3.52046 -12.2936
ltibia 22.2051
lfoot -22.8842 16.1839
ltoes -55.1185
291
root -0.685684 18.726 5.49512 2.93939 -2.31084 -1.79376
lowerback 6.43555 1.86752 0.438995
upperback 0.320389 2.52996 0.34177
thorax -3.27178 1.25322 -0.125104
lowerneck -11.7787 -3.66067 -1.80701
upperneck 25.1459 -5.83145 4.06224
head 10.118 -2.40072 1.02459
rclavicle -1.45486e-014 5.06901e-015
rhumerus -37.6618 15.1815 -93.5767
rradius 101.963
rwrist 33.4289
rhand -25.0199 -52.5289
rfingers 7.12502
rthumb 1.49231 -82.5034
lclavicle -1.45486e-014 5.06901e-015
lhumerus -31.6159 -18.8038 93.793
lradius 95.217
lwrist -11.2467
lhand -16.3061 -22.8218
lfingers 7.12502
lthumb 9.90481 6.9252
rfemur 0 0 0
rtibia 0
rfoot 0 0
rtoes 0
lfemur -6.30884 -3.5865 -12.26
ltibia 22.3065
lfoot -22.9187 16.2221
ltoes -55.1483
292
root -0.686464 18.7256 5.50001 2.83675 -2.24976 -1.84023
lowerback 6.4619 1.86908 0.449642
upperback 0.334428 2.53265 0.335194
thorax -3.27126 1.25436 -0.138718
lowerneck -11.8661 -3.71924 -1.88947
upperneck 24.8999 -5.91001 4.16703
head 10.0551 -2.43579 1.06367
rclavicle 2.45064e-014 1.78906e-015
rhumerus -37.6312 14.7478 -93.5314
rradius 101.693
rwrist 34.8514
rhand -30.2236 -52.5857
rfingers 7.12502
rthumb -3.53341 -82.5361
lclavicle 2.45064e-014 1.78906e-015
lhumerus -31.7787 -18.6494 94.1484
lradius 94.6893
lwrist -11.364
lhand -18.8063 -27.0091
lfingers 7.12502
lthumb 7.49215 2.83826
rfemur 0 0 0
rtibia 0
rfoot 0 0
rtoes 0
lfemur -6.25441 -3.77395 -12.2232
ltibia 22.4398
lfoot -22.9924 16.3141
ltoes -55.1252
293
root -0.687062 18.7251 5.49678 2.78201 -2.42127 -2.26319
lowerback 6.50214 1.94995 0.880918
upperback 0.276251 2.67543 0.406399
thorax -3.33708 1.31882 -0.322309
lowerneck -11.9816 -3.79003 -1.95222
upperneck 24.9204 -5.99898 4.17605
head 10.0904 -2.47935 1.06402
rclavicle 5.77718e-015 2.98177e-016
rhumerus -37.4198 14.1739 -93.4049
rradius 100.361
rwrist 36.2672
rhand -30.9012 -53.3526
rfingers 7.12502
rthumb -4.18774 -83.2912
lclavicle 5.77718e-015 2.98177e-016
lhumerus -31.6225 -18.4299 94.2402
lradius 92.8846
lwrist -12.7104
lhand -20.0646 -29.8715
lfingers 7.12502
lthumb 6.27742 0.015502
rfemur 0 0 0
rtibia 0
rfoot 0 0
rtoes 0
lfemur -6.16714 -3.83423 -11.7698
ltibia 22.4994
lfoot -23.1309 16.4672
ltoes -55.0607
294
root -0.691383 18.7252 5.4916 2.8894 -2.65375 -2.70092
lowerback 6.34518 2.05071 1.2705
upperback 0.133603 2.84079 0.490121
thorax -3.38036 1.39488 -0.46586
lowerneck -12.1347 -3.87577 -2.11021
upperneck 25.2024 -6.11247 4.22641
head 10.2335 -2.53311 1.091
rclavicle 3.99309e-014 6.4605e-015
rhumerus -36.9538 13.3942 -93.252
rradius 98.1711
rwrist 37.4686
rhand -28.4698 -52.2673
rfingers 7.12502
rthumb -1.83969 -82.2391
lclavicle 3.99309e-014 6.4605e-015
lhumerus -30.6583 -18.155 94.2295
lradius 90.2143
lwrist -13.3856
lhand -17.8252 -26.0926
lfingers 7.12502
lthumb 8.43899 3.71876
rfemur 0 0 0
rtibia 0
rfoot 0 0
rtoes 0
lfemur -6.20055 -3.72801 -11.2657
ltibia 22.4769
lfoot -23.3047 16.4951
ltoes -54.9903
295
root -0.695811 18.7206 5.49489 2.70252 -2.67232 -2.28411
lowerback 6.26949 2.08039 0.781688
upperback 0.119147 2.83967 0.36404
thorax -3.37008 1.40139 -0.319866
lowerneck -12.4236 -3.94646 -2.31852
upperneck 25.5933 -6.22499 4.3767
head 10.4497 -2.57545 1.15926
rclavicle -1.11444e-014 -1.54058e-014
rhumerus -36.2229 12.4406 -93.2639
rradius 95.6859
rwrist 36.7671
rhand -23.2238 -52.4386
rfingers 7.12502
rthumb 3.227 -82.3939
lclavicle -1.11444e-014 -1.54058e-014
lhumerus -29.5889 -17.9919 94.1509
lradius 87.6381
lwrist -12.2658
lhand -14.6798 -21.4581
lfingers 7.12502
lthumb 11.4736 8.20791
rfemur 0 0 0
rtibia 0
rfoot 0 0
rtoes 0
lfemur -5.96497 -3.73985 -11.7385
ltibia 22.426
lfoot -23.379 16.4689
ltoes -54.9765
